<?xml version="1.0" encoding="iso-8859-1"?>
<!-- Uploaded to: SVG Repo, www.svgrepo.com, Generator: SVG Repo Mixer Tools -->
<svg height="800px" width="800px" version="1.1" id="Layer_1" xmlns="http://www.w3.org/2000/svg" xmlns:xlink="http://www.w3.org/1999/xlink" 
	 viewBox="0 0 512 512" xml:space="preserve">
<path style="fill:#777777;" d="M420.174,503.652c0,4.61-3.738,8.348-8.348,8.348H100.174c-4.61,0-8.348-3.738-8.348-8.348
	s3.738-8.348,8.348-8.348H203.13v-91.826c0-4.61,3.738-8.348,8.348-8.348c4.61,0,8.348,3.738,8.348,8.348v91.826h72.348v-91.826
	c0-4.61,3.738-8.348,8.348-8.348s8.348,3.738,8.348,8.348v91.826h102.957C416.436,495.304,420.174,499.042,420.174,503.652z"/>
<path style="fill:#E2DCBC;" d="M467.478,411.826H44.522C19.933,411.826,0,391.893,0,367.304V89.043
	c0-24.588,19.933-44.522,44.522-44.522h422.957c24.588,0,44.522,19.933,44.522,44.522v278.261
	C512,391.893,492.066,411.826,467.478,411.826z"/>
<path style="fill:#F4EECB;" d="M467.478,389.565H44.522c-12.295,0-22.261-9.966-22.261-22.261V89.043
	c0-12.295,9.966-22.261,22.261-22.261h422.957c12.295,0,22.261,9.966,22.261,22.261v278.261
	C489.739,379.599,479.773,389.565,467.478,389.565z"/>
<path style="fill:#BFBBA3;" d="M389.565,434.087h-267.13c-12.295,0-22.261-9.966-22.261-22.261l0,0
	c0-12.295,9.966-22.261,22.261-22.261h267.13c12.295,0,22.261,9.966,22.261,22.261l0,0
	C411.826,424.121,401.86,434.087,389.565,434.087z"/>
<path style="fill:#A3CCAA;" d="M389.565,322.783H289.391V22.261C289.391,9.966,299.357,0,311.652,0h55.652
	c12.295,0,22.261,9.966,22.261,22.261V322.783z"/>
<path style="fill:#80A886;" d="M333.913,322.783H233.739V144.696c0-12.295,9.966-22.261,22.261-22.261h55.652
	c12.295,0,22.261,9.966,22.261,22.261V322.783z"/>
<path style="fill:#FC8059;" d="M311.652,322.783H211.478V122.435c0-12.295,9.966-22.261,22.261-22.261h55.652
	c12.295,0,22.261,9.966,22.261,22.261V322.783z"/>
<path style="fill:#BF5243;" d="M256,322.783H155.826V244.87c0-12.295,9.966-22.261,22.261-22.261h55.652
	c12.295,0,22.261,9.966,22.261,22.261V322.783z"/>
<path style="fill:#FED766;" d="M233.739,322.783H133.565V222.609c0-12.295,9.966-22.261,22.261-22.261h55.652
	c12.295,0,22.261,9.966,22.261,22.261V322.783z"/>
<path style="fill:#BFBBA3;" d="M415.403,325.565c0,4.61-3.738,8.348-8.348,8.348H72.348c-4.61,0-8.348-3.738-8.348-8.348
	c0-4.61,3.738-8.348,8.348-8.348h334.708C411.666,317.217,415.403,320.955,415.403,325.565z M439.652,317.217h-1.639
	c-4.61,0-8.348,3.738-8.348,8.348c0,4.61,3.738,8.348,8.348,8.348h1.639c4.61,0,8.348-3.738,8.348-8.348
	C448,320.955,444.262,317.217,439.652,317.217z"/>
</svg>